<svg width="730" height="622" viewBox="0 0 730 622" fill="none" xmlns="http://www.w3.org/2000/svg">
<g clip-path="url(#clip0_1_5745)">
<g clip-path="url(#clip1_1_5745)">
<rect x="178" width="396" height="346" rx="8" fill="white"/>
<path d="M178 8C178 3.58172 181.582 0 186 0H566C570.418 0 574 3.58172 574 8V27H178V8Z" fill="#2B44FF"/>
<circle cx="191" cy="14" r="4" fill="#F2F2F2"/>
<circle cx="203" cy="14" r="4" fill="#F2F2F2"/>
<circle cx="215" cy="14" r="4" fill="#F2F2F2"/>
<g clip-path="url(#clip2_1_5745)">
<g clip-path="url(#clip3_1_5745)">
<rect x="488" y="132" width="70" height="194" rx="8" fill="white"/>
<g clip-path="url(#clip4_1_5745)">
<rect x="506" y="150" width="34" height="26" rx="4" fill="#DDE3E9"/>
<rect x="506" y="184" width="34" height="25" rx="4" fill="#AFB9C5"/>
<rect x="506" y="217" width="34" height="25" rx="4" fill="#DDE3E9"/>
<rect x="506" y="283" width="34" height="25" rx="4" fill="#DDE3E9"/>
<rect x="506" y="250" width="34" height="25" rx="4" fill="#C5CFD6"/>
</g>
</g>
<rect x="488" y="43" width="70" height="81" rx="8" fill="white"/>
<g clip-path="url(#clip5_1_5745)">
<circle cx="523" cy="74" r="16" fill="#DDE3E9"/>
<rect x="498" y="94" width="50" height="6" rx="3" fill="#DDE3E9"/>
<rect x="506" y="104" width="34" height="6" rx="3" fill="#DDE3E9"/>
</g>
<g clip-path="url(#clip6_1_5745)">
<g clip-path="url(#clip7_1_5745)">
<rect x="194" y="43" width="286" height="47" rx="4" fill="white"/>
<g clip-path="url(#clip8_1_5745)">
<rect x="203" y="57.1" width="228" height="7.05" rx="3" fill="#DDE3E9"/>
<rect x="203" y="68.85" width="153.041" height="7.05" rx="3" fill="#DDE3E9"/>
</g>
<circle cx="449.435" cy="66.5" r="7" fill="#DDE3E9"/>
<circle cx="449.435" cy="66.5" r="3" fill="#F2F2F2"/>
</g>
<g clip-path="url(#clip9_1_5745)">
<rect x="194" y="98" width="286" height="39" rx="4" fill="white"/>
<g clip-path="url(#clip10_1_5745)">
<rect x="203" y="109.7" width="228" height="5.85" rx="2.925" fill="#DDE3E9"/>
<rect x="203" y="119.45" width="153.041" height="5.85" rx="2.925" fill="#DDE3E9"/>
</g>
<circle cx="449.435" cy="117.5" r="7" fill="#DDE3E9"/>
<circle cx="449.435" cy="117.5" r="3" fill="#F2F2F2"/>
</g>
<g clip-path="url(#clip11_1_5745)">
<rect x="194" y="145" width="286" height="39" rx="4" fill="white"/>
<g clip-path="url(#clip12_1_5745)">
<rect x="203" y="156.7" width="228" height="5.85" rx="2.925" fill="#DDE3E9"/>
<rect x="203" y="166.45" width="153.041" height="5.85" rx="2.925" fill="#DDE3E9"/>
</g>
<circle cx="449.435" cy="164.5" r="7" fill="#DDE3E9"/>
<circle cx="449.435" cy="164.5" r="3" fill="#F2F2F2"/>
</g>
<g clip-path="url(#clip13_1_5745)">
<rect x="194" y="286" width="286" height="39" rx="4" fill="white"/>
<g clip-path="url(#clip14_1_5745)">
<rect x="203" y="297.7" width="228" height="5.85" rx="2.925" fill="#DDE3E9"/>
<rect x="203" y="307.45" width="153.041" height="5.85" rx="2.925" fill="#DDE3E9"/>
</g>
<circle cx="449.435" cy="305.5" r="7" fill="#DDE3E9"/>
<circle cx="449.435" cy="305.5" r="3" fill="#F2F2F2"/>
</g>
<g clip-path="url(#clip15_1_5745)">
<rect x="194" y="239" width="286" height="39" rx="4" fill="white"/>
<g clip-path="url(#clip16_1_5745)">
<rect x="203" y="250.7" width="228" height="5.85" rx="2.925" fill="#DDE3E9"/>
<rect x="203" y="260.45" width="153.041" height="5.85" rx="2.925" fill="#DDE3E9"/>
</g>
<circle cx="449.435" cy="258.5" r="7" fill="#DDE3E9"/>
<circle cx="449.435" cy="258.5" r="3" fill="#F2F2F2"/>
</g>
<g clip-path="url(#clip17_1_5745)">
<rect x="194" y="192" width="286" height="39" rx="4" fill="white"/>
<g clip-path="url(#clip18_1_5745)">
<rect x="203" y="203.7" width="228" height="5.85" rx="2.925" fill="#DDE3E9"/>
<rect x="203" y="213.45" width="153.041" height="5.85" rx="2.925" fill="#DDE3E9"/>
</g>
<circle cx="449.435" cy="211.5" r="7" fill="#DDE3E9"/>
<circle cx="449.435" cy="211.5" r="3" fill="#F2F2F2"/>
</g>
</g>
</g>
</g>
<path fill-rule="evenodd" clip-rule="evenodd" d="M172.653 186.024C181.351 189.72 189.558 190.943 193.123 189.472C202.064 185.783 198.158 151.803 189.105 139.463C180.052 127.123 142.339 126.49 144.197 153.199C144.841 162.469 149.855 170.118 156.501 176.001L152.957 225.031L182.681 220.854L172.653 186.024Z" fill="#EFBC8C"/>
<path fill-rule="evenodd" clip-rule="evenodd" d="M175.321 126.575C171.086 125.91 165.131 126.319 162.69 126.951C163.627 123.38 163.659 119.543 162.688 115.948C161.745 112.455 159.727 109.651 157.809 106.686C156.924 105.319 155.951 103.973 154.647 103.015C153.318 102.04 151.734 101.496 150.133 101.355C148.494 101.21 146.839 101.474 145.296 102.031C144.614 102.277 144.028 102.687 143.364 102.962C142.683 103.244 142.279 102.851 141.704 102.48C140.319 101.585 138.434 101.313 136.845 101.344C135.062 101.378 133.279 101.898 131.688 102.708C130.139 103.497 128.704 104.626 127.713 106.116C127.272 106.779 126.891 107.517 126.686 108.301C126.602 108.623 126.606 108.806 126.318 108.96C126.051 109.103 125.722 109.152 125.446 109.291C122.773 110.634 120.678 113.134 119.762 116.096C119.227 117.824 119.267 120.728 119.816 123.912C120.364 127.097 124.431 135.035 127.566 137.699C130.364 140.076 134.167 141.37 137.704 141.673C135.794 144.587 134.736 148.042 134.079 151.497C133.366 155.25 133.137 159.078 133.392 162.909C133.634 166.549 134.145 170.363 135.487 173.77C136.742 176.956 138.816 179.423 141.884 180.742C143.289 181.346 144.766 181.741 146.243 182.084C147.699 182.422 149.156 182.744 150.645 182.839C153.462 183.019 156.603 182.479 158.407 180.008C159.057 179.117 159.754 178.015 160.174 176.979C160.325 176.607 160.414 176.364 160.124 176.062C159.777 175.699 159.264 175.456 158.847 175.193C156.469 173.694 154.815 171.478 154.082 168.672C153.339 165.824 153.593 161.978 156.236 160.319C159.498 158.27 163.584 159.521 166.913 160.755C167.577 155.938 169.692 151.388 173.627 148.669C177.98 145.66 183.316 144.63 187.846 141.937C189.026 141.235 190.22 140.459 190.993 139.258C191.316 138.756 191.687 138.112 191.758 137.499C191.851 136.693 191.257 136.112 190.783 135.56C188.274 132.636 179.556 127.24 175.321 126.575Z" fill="#191847"/>
<path fill-rule="evenodd" clip-rule="evenodd" d="M163.592 323.323L256.525 478.357L326.197 609.426H341.204L224.467 323.323L163.592 323.323Z" fill="#997659"/>
<path fill-rule="evenodd" clip-rule="evenodd" d="M319.989 601.758C318.923 601.278 317.65 601.752 317.243 602.849C316.324 605.327 314.923 609.474 314.923 611.741C314.923 615.117 316.05 621.594 316.05 621.594C319.974 621.594 386.59 621.594 386.59 621.594C386.59 621.594 389.339 612.523 383.415 611.8C377.491 611.076 373.573 610.493 373.573 610.493L340.55 595.803C340.036 595.574 339.434 595.815 339.219 596.335L337.013 601.674C337.013 601.674 331.529 604.227 328.101 604.227C325.853 604.227 322.223 602.765 319.989 601.758Z" fill="white"/>
<path fill-rule="evenodd" clip-rule="evenodd" d="M306.847 588.438L335.788 579.702C335.788 579.702 316.768 522.965 289.166 454.829C261.563 386.693 229.877 323.323 229.877 323.323H148.139C148.139 323.323 183.367 403.483 222.831 468.995C262.296 534.507 306.847 588.438 306.847 588.438Z" fill="#D04949"/>
<path fill-rule="evenodd" clip-rule="evenodd" d="M157.485 323.323C148.713 377.803 131.796 447.408 130.2 449.556C129.136 450.988 90.819 463.8 15.2503 487.992L18.492 501.197C108.607 488.222 156.091 478.156 160.942 470.999C168.218 460.262 204.549 375.443 218.621 323.323H157.485Z" fill="#B28B67"/>
<path fill-rule="evenodd" clip-rule="evenodd" d="M41.814 476.577L47.5238 497.845C114.925 503.744 156.223 499.481 171.418 485.058C186.614 470.634 203.932 416.723 223.372 323.323H145.43C133.113 399.805 126.227 439.651 124.771 442.861C123.316 446.072 95.6639 457.311 41.814 476.577Z" fill="#FB5858"/>
<path fill-rule="evenodd" clip-rule="evenodd" d="M21.048 485.06C21.3362 483.927 20.6479 482.756 19.4974 482.546C16.8974 482.07 12.57 481.411 10.3367 481.805C7.01223 482.391 0.830002 484.625 0.830002 484.625C1.51148 488.49 13.0791 554.094 13.0791 554.094C13.0791 554.094 22.4895 555.226 22.1731 549.267C21.8566 543.307 21.7502 539.347 21.7502 539.347L30.483 504.275C30.619 503.729 30.2777 503.178 29.7281 503.057L24.0873 501.811C24.0873 501.811 20.6205 496.854 20.0251 493.477C19.6347 491.264 20.4442 487.435 21.048 485.06Z" fill="white"/>
<path fill-rule="evenodd" clip-rule="evenodd" d="M251.504 213.308L211.818 242.844L230.082 257.615L257.307 224.686C273.126 217.849 280.186 213.481 278.487 211.583C277.054 209.982 275.152 210.312 273.4 210.616C272.035 210.852 270.762 211.073 269.872 210.354C267.84 208.71 270.28 201.622 272.884 194.994C275.489 188.365 271.856 189.421 269.86 190.602C263.581 196.264 257.462 203.833 251.504 213.308ZM299.359 240.2L281.931 253.204L285.664 271.962C285.664 271.962 296.655 261.435 306.766 257.029C319.657 251.411 324.684 247.798 330.068 238.541C332.949 233.589 334.666 224.205 330.917 221.755C329.479 220.815 325.079 224.131 320.589 227.515C317.168 230.094 313.694 232.712 311.44 233.515C308.406 234.596 308.204 230.504 308.043 227.234C307.927 224.887 307.832 222.964 306.726 223.679C301.212 224.551 299.359 240.2 299.359 240.2Z" fill="#997659"/>
<path fill-rule="evenodd" clip-rule="evenodd" d="M190.147 240.553C205.182 238.278 224.814 232.283 244.331 215.701L255.376 233.242C242.655 249.953 223.566 264.898 205.326 266.942C190.951 268.553 181.205 252.3 190.147 240.553Z" fill="#1D1F42"/>
<path fill-rule="evenodd" clip-rule="evenodd" d="M167.565 374.533C152.989 374.682 139.595 374.82 132.016 377.446C119.287 350.334 124.041 331.468 128.43 314.053C131.075 303.557 133.587 293.588 132.059 282.657C127.61 250.825 146.336 198.233 150.104 197.704L151.186 197.552L181.05 193.355L184.469 192.874C188.773 212.355 198.327 232.758 207.943 253.293C210.189 258.089 212.438 262.892 214.624 267.692C240.393 269.838 293.081 242.354 293.081 242.354C293.081 242.354 311.142 269.287 311.815 281.742C281.902 303.104 255.291 314.493 232.568 318.192C235.189 331.585 235.348 344.657 231.467 357.168C226.267 373.931 194.845 374.253 167.565 374.533Z" fill="#1D1F42"/>
<path fill-rule="evenodd" clip-rule="evenodd" d="M539.8 185.689C532.356 191.511 524.744 194.817 520.92 194.318C511.329 193.069 506.307 159.236 511.858 144.973C517.409 130.711 553.673 120.339 558.791 146.618C560.568 155.739 557.705 164.425 552.807 171.827L568.921 218.27L539.128 221.928L539.8 185.689Z" fill="#EFBC8C"/>
<path fill-rule="evenodd" clip-rule="evenodd" d="M526.946 127.468C530.793 126.344 541.311 124.604 543.261 124.365C544.507 124.212 545.892 124.33 546.49 123.098C546.979 122.089 546.564 120.535 546.611 119.428C546.666 118.142 546.811 116.861 546.959 115.583C547.382 111.947 548.264 108.429 549.688 105.053C552.361 98.7182 556.771 93.4719 562.727 90.003C569.303 86.1726 577.075 84.5262 584.617 84.2134C592.687 83.8784 600.244 85.6226 608.093 87.1733C615.572 88.6511 623.217 88.6556 630.595 86.5795C638.029 84.488 643.25 79.6875 649.164 75.0137C655.217 70.2288 662.373 66.7068 670.181 66.3558C677.469 66.0283 684.488 68.1859 690.946 71.4264C696.987 74.4584 702.145 78.3654 705.52 84.3413C709.151 90.7694 710.061 98.2029 706.193 104.753C700.586 114.247 688.476 118.011 678.144 119.053C672.168 119.656 666.181 119.29 660.311 118.006C652.483 116.293 645.449 112.625 637.984 109.865C634.48 108.57 630.903 107.592 627.21 107.024C623.626 106.474 620.159 106.445 617.279 108.918C614.232 111.534 611.526 114.07 607.9 115.918C604.421 117.692 600.655 118.908 596.772 119.354C589.217 120.223 581.488 118.79 573.964 118.118C567.828 117.57 561.275 117.078 555.331 119.059C552.851 119.885 549.267 121.403 548.672 124.153C564.475 125.051 572.89 143.384 570.251 157.926C568.827 165.774 555.772 176.347 549.786 173.048C545.994 170.958 547.703 167.393 548.803 165.043C550.911 160.543 551.149 155.065 545.942 152.751C541.451 150.756 537.784 157.254 537.7 157.258C536.54 157.308 525.917 152.922 518.068 145.582C511.365 146.81 509.795 142.493 510.961 138.662C512.128 134.831 521.629 129.023 526.946 127.468Z" fill="#191847"/>
<path fill-rule="evenodd" clip-rule="evenodd" d="M604.117 323.322C601.862 354.035 456.585 444.457 455.738 446.994C455.173 448.686 500.957 553.925 500.957 553.925L488.257 558.849C488.257 558.849 418.032 447.393 421.639 435.517C426.803 418.514 534.358 323.649 534.358 323.649L604.117 323.322Z" fill="#B28B67"/>
<path fill-rule="evenodd" clip-rule="evenodd" d="M497.615 538.08L476.881 545.612C433.161 496.388 416.024 455.773 419.149 435.08C422.273 414.386 531.478 323.398 531.478 323.398L605.604 323.398C603.075 394.524 468.421 447.265 466.62 450.296C464.819 453.327 482.544 483.012 497.615 538.08Z" fill="#2F3676"/>
<path fill-rule="evenodd" clip-rule="evenodd" d="M502.292 550.976C503.129 550.16 504.487 550.171 505.244 551.062C506.956 553.076 509.691 556.494 510.467 558.625C511.621 561.797 512.777 568.268 512.777 568.268C509.089 569.61 446.491 592.394 446.491 592.394C446.491 592.394 440.805 584.811 446.125 582.105C451.444 579.399 454.927 577.511 454.927 577.511L480.934 552.412C481.339 552.022 481.986 552.042 482.366 552.457L486.265 556.72C486.265 556.72 492.292 557.243 495.514 556.071C497.626 555.302 500.537 552.686 502.292 550.976Z" fill="white"/>
<path fill-rule="evenodd" clip-rule="evenodd" d="M587.413 323.323L652.13 478.357L715.737 609.426H700.73L536.544 323.323H587.413Z" fill="#997659"/>
<path fill-rule="evenodd" clip-rule="evenodd" d="M713.667 601.758C714.733 601.278 716.005 601.752 716.412 602.849C717.332 605.327 718.733 609.474 718.733 611.741C718.733 615.117 717.606 621.594 717.606 621.594C713.682 621.594 647.066 621.594 647.066 621.594C647.066 621.594 644.317 612.523 650.241 611.8C656.165 611.076 660.083 610.493 660.083 610.493L693.106 595.803C693.62 595.574 694.222 595.815 694.437 596.335L696.642 601.674C696.642 601.674 702.127 604.227 705.555 604.227C707.803 604.227 711.433 602.765 713.667 601.758Z" fill="white"/>
<path fill-rule="evenodd" clip-rule="evenodd" d="M709.993 582.198L676.647 588.438C650.865 550.614 542.964 395.521 531.133 323.323H605.368C644.875 375.515 685.417 543.748 709.993 582.198Z" fill="#5C63AB"/>
<path fill-rule="evenodd" clip-rule="evenodd" d="M425.69 285.777L473.09 299.966L460.982 320.089L424.131 298.453C406.926 297.435 398.797 295.744 399.745 293.379C400.543 291.385 402.443 291.045 404.193 290.732C405.557 290.488 406.829 290.26 407.419 289.28C408.766 287.04 404.047 281.214 399.332 275.876C394.617 270.537 398.391 270.288 400.671 270.715C408.509 273.889 416.849 278.91 425.69 285.777ZM630.785 291.227L655.603 283.067C678.426 326.321 691.764 349.923 695.617 353.87C698.443 356.765 714.46 363.148 725.157 366.294C729.45 367.557 728.997 371.103 727.936 372.349C721.245 380.213 713.935 378.643 705.976 376.933C703.672 376.438 701.314 375.931 698.901 375.638C692.655 374.881 691.193 378.217 689.81 381.371C688.586 384.163 687.426 386.811 683.064 386.347C683.155 385.493 683.277 384.533 683.41 383.497C684.266 376.803 685.529 366.931 681.229 361.813C679.022 359.187 662.207 335.658 630.785 291.227Z" fill="#B28B67"/>
<path fill-rule="evenodd" clip-rule="evenodd" d="M549.369 199.711L538.41 199.192C517.808 224.694 514.943 280.236 500.246 289.346C486.35 297.959 464.659 293.938 438.745 288.095L433.225 305.977C458.768 327.555 509.341 342.226 527.374 328.091C556.207 305.493 555.161 237.553 549.369 199.711Z" fill="#D04949"/>
<path fill-rule="evenodd" clip-rule="evenodd" d="M612.689 328.572C612.689 328.572 548.13 336.499 517.712 340.234C513.372 340.766 513.422 334.413 513.662 331.18C516.431 293.873 539.875 251.146 533.51 199.305L560.38 191.655C587.505 225.239 600.838 269.05 612.689 328.572Z" fill="#DDE3E9"/>
<path fill-rule="evenodd" clip-rule="evenodd" d="M561.834 191.476L562.147 191.438C628.235 221.678 672.563 275.692 695.131 353.478L675.701 359.814C660.631 346.102 641.275 323.01 617.635 290.537C626.153 310.801 633.133 331.8 636.986 351.993L551.492 362.491C529.816 322.786 551.3 192.77 551.3 192.77L557.202 192.045L561.834 191.476Z" fill="#FB5858"/>
<path fill-rule="evenodd" clip-rule="evenodd" d="M326.51 186.966C326.509 186.971 326.508 186.976 326.507 186.983C326.508 186.977 326.508 186.957 326.51 186.966Z" fill="#C5CFD6"/>
<path fill-rule="evenodd" clip-rule="evenodd" d="M326.507 186.974C326.507 186.975 326.507 186.977 326.507 186.979C326.506 186.975 326.511 186.958 326.507 186.974Z" fill="#C5CFD6"/>
<path fill-rule="evenodd" clip-rule="evenodd" d="M326.52 186.884C326.518 186.905 326.514 186.926 326.511 186.947C326.513 186.936 326.515 186.927 326.516 186.917C326.478 187.194 326.501 187.014 326.52 186.884Z" fill="#C5CFD6"/>
<path fill-rule="evenodd" clip-rule="evenodd" d="M326.513 186.948C326.511 186.957 326.51 186.968 326.508 186.978C326.494 187.039 326.513 186.948 326.513 186.948Z" fill="#C5CFD6"/>
<path fill-rule="evenodd" clip-rule="evenodd" d="M326.508 186.974C326.507 186.973 326.507 186.973 326.508 186.972C326.507 186.973 326.507 186.973 326.508 186.974Z" fill="#C5CFD6"/>
<path fill-rule="evenodd" clip-rule="evenodd" d="M326.505 186.983C326.502 186.996 326.521 186.931 326.505 186.983V186.983Z" fill="#C5CFD6"/>
<path fill-rule="evenodd" clip-rule="evenodd" d="M326.507 186.975L326.509 186.972C326.508 186.973 326.508 186.974 326.507 186.975Z" fill="#C5CFD6"/>
<rect x="264.736" y="146.933" width="100" height="66" rx="4" transform="rotate(-14 264.736 146.933)" fill="#2B44FF"/>
<path fill-rule="evenodd" clip-rule="evenodd" d="M306.071 156.491L289.458 209.072L345.425 195.118L306.071 156.491Z" fill="black" fill-opacity="0.2"/>
<circle cx="346.37" cy="150.102" r="9.5" transform="rotate(-14 346.37 150.102)" fill="white"/>
</g>
<defs>
<clipPath id="clip0_1_5745">
<rect width="729.354" height="621.594" fill="white" transform="translate(0.634277)"/>
</clipPath>
<clipPath id="clip1_1_5745">
<rect width="396" height="346" fill="white" transform="translate(178)"/>
</clipPath>
<clipPath id="clip2_1_5745">
<rect width="364" height="283" fill="white" transform="translate(194 43)"/>
</clipPath>
<clipPath id="clip3_1_5745">
<rect width="70" height="194" fill="white" transform="translate(488 132)"/>
</clipPath>
<clipPath id="clip4_1_5745">
<rect width="34" height="158" fill="white" transform="translate(506 150)"/>
</clipPath>
<clipPath id="clip5_1_5745">
<rect width="50" height="52" fill="white" transform="translate(498 58)"/>
</clipPath>
<clipPath id="clip6_1_5745">
<rect width="286" height="282" fill="white" transform="translate(194 43)"/>
</clipPath>
<clipPath id="clip7_1_5745">
<rect width="286" height="47" fill="white" transform="translate(194 43)"/>
</clipPath>
<clipPath id="clip8_1_5745">
<rect width="228" height="18.8" fill="white" transform="translate(203 57.1)"/>
</clipPath>
<clipPath id="clip9_1_5745">
<rect width="286" height="39" fill="white" transform="translate(194 98)"/>
</clipPath>
<clipPath id="clip10_1_5745">
<rect width="228" height="15.6" fill="white" transform="translate(203 109.7)"/>
</clipPath>
<clipPath id="clip11_1_5745">
<rect width="286" height="39" fill="white" transform="translate(194 145)"/>
</clipPath>
<clipPath id="clip12_1_5745">
<rect width="228" height="15.6" fill="white" transform="translate(203 156.7)"/>
</clipPath>
<clipPath id="clip13_1_5745">
<rect width="286" height="39" fill="white" transform="translate(194 286)"/>
</clipPath>
<clipPath id="clip14_1_5745">
<rect width="228" height="15.6" fill="white" transform="translate(203 297.7)"/>
</clipPath>
<clipPath id="clip15_1_5745">
<rect width="286" height="39" fill="white" transform="translate(194 239)"/>
</clipPath>
<clipPath id="clip16_1_5745">
<rect width="228" height="15.6" fill="white" transform="translate(203 250.7)"/>
</clipPath>
<clipPath id="clip17_1_5745">
<rect width="286" height="39" fill="white" transform="translate(194 192)"/>
</clipPath>
<clipPath id="clip18_1_5745">
<rect width="228" height="15.6" fill="white" transform="translate(203 203.7)"/>
</clipPath>
</defs>
</svg>
